<svg id="adbd5017-09fd-48a6-9b0c-ad9ef97196f5" data-name="Layer 1" xmlns="http://www.w3.org/2000/svg" width="865.76" height="682.89" viewBox="0 0 865.76 682.89"><g id="f006fadc-4aa6-4462-8714-bacf94df0b8c" data-name="b43ab62f-a268-4de2-9dff-64c6b6f0c7c6"><g id="a37185b1-51b4-4218-bba5-997bf0aab18a" data-name="f8d76673-7985-434d-99dc-d99caf6e5eb9"><path d="M853,509.14c18.29-137.44-70.45-320.08-162.3-395.5C524.79-22.53,386.91,3.8,279.66,52.55S157.21,264.18,83.15,337.85-33,510.59,79.34,609.25,282.4,657.76,399.76,651.5s273.2,43,357.45.17C816.05,621.78,845,570,853,509.14Z" fill="#0a0a0a"/><path d="M853,509.14c18.29-137.44-70.45-320.08-162.3-395.5C524.79-22.53,386.91,3.8,279.66,52.55S157.21,264.18,83.15,337.85-33,510.59,79.34,609.25,282.4,657.76,399.76,651.5s273.2,43,357.45.17C816.05,621.78,845,570,853,509.14Z" fill="#fff" opacity="0.8" style="isolation:isolate"/></g><g id="b12272ef-b4ca-4ffc-aeb0-a4e130ec8281" data-name="a2ec8de8-54c7-451e-b69c-5e4db815d083"><path d="M20.76,532.35C31.23,557.69,50,583.49,79.34,609.21c112.34,98.63,203.06,48.51,320.42,42.25s273.2,43,357.45.17c51.18-26,79.77-68.67,91.66-119.32Z" fill="#0a0a0a"/><path d="M20.76,532.35C31.23,557.69,50,583.49,79.34,609.21c112.34,98.63,203.06,48.51,320.42,42.25s273.2,43,357.45.17c51.18-26,79.77-68.67,91.66-119.32Z" fill="#fff" opacity="0.5" style="isolation:isolate"/></g><g id="b9da39d7-f122-4cab-878c-9cbcb6f12f3d" data-name="af864ef5-c5cd-426b-91e7-5b67599fb687"><rect x="746.97" y="630.36" width="58.93" height="0.44" fill="#ebebeb"/><rect x="579.28" y="635.2" width="15.46" height="0.44" fill="#ebebeb"/><rect x="711.05" y="613.85" width="34.14" height="0.44" fill="#ebebeb"/><rect x="98.78" y="616.83" width="76.84" height="0.44" fill="#ebebeb"/><rect x="191.48" y="616.83" width="11.26" height="0.44" fill="#ebebeb"/><rect x="239.36" y="624.34" width="166.67" height="0.44" fill="#ebebeb"/><path d="M427.11,522.38H83.57a10.16,10.16,0,0,1-10.14-10.16V29.3A10.16,10.16,0,0,1,83.57,19.23H427.11a10.16,10.16,0,0,1,10.16,10.16h0V512.22a10.16,10.16,0,0,1-10.16,10.16ZM83.57,19.59a9.7,9.7,0,0,0-9.69,9.71h0V512.22a9.7,9.7,0,0,0,9.69,9.71H427.11a9.73,9.73,0,0,0,9.72-9.71V29.3a9.73,9.73,0,0,0-9.72-9.71Z" fill="#ebebeb"/><path d="M812,522.38H468.41a10.17,10.17,0,0,1-10.16-10.16V29.3a10.18,10.18,0,0,1,10.16-10.07H812A10.16,10.16,0,0,1,822.09,29.3V512.22A10.17,10.17,0,0,1,812,522.38ZM468.41,19.59a9.73,9.73,0,0,0-9.72,9.71V512.22a9.73,9.73,0,0,0,9.72,9.71H812a9.73,9.73,0,0,0,9.72-9.71V29.3A9.73,9.73,0,0,0,812,19.59Z" fill="#ebebeb"/><path d="M537.12,88.92a8.6,8.6,0,0,0-8.59-8.59h0a8.93,8.93,0,0,0-2.47.35,18.15,18.15,0,0,0-15.28-20.63h0a17.43,17.43,0,0,0-2.7-.2,18.88,18.88,0,0,0-3.35.3,15.91,15.91,0,0,0-29.55,8h-.27a14.66,14.66,0,1,0,0,29.32h53.84A8.58,8.58,0,0,0,537.12,88.92Z" fill="#f5f5f5"/><path d="M416,133.1a4.29,4.29,0,0,0-4.29-4.29h0a3.67,3.67,0,0,0-1.23.18,9.76,9.76,0,0,0,.09-1.32,9.09,9.09,0,0,0-9.07-9.11h0a8.72,8.72,0,0,0-1.69.16,8,8,0,0,0-14.75,4h-.13a7.33,7.33,0,0,0,0,14.66h26.92A4.26,4.26,0,0,0,416,133.1Z" fill="#f5f5f5"/><path d="M173.33,277.64a4.27,4.27,0,0,0-4.2-4.29,3.61,3.61,0,0,0-1.22.18v-1.32a9.11,9.11,0,0,0-9.11-9.11,8.62,8.62,0,0,0-1.68.16,7.95,7.95,0,0,0-14.67,4h-.13a7.33,7.33,0,1,0,0,14.66h26.81A4.27,4.27,0,0,0,173.33,277.64Z" fill="#f5f5f5"/><path d="M753.7,279.38a4.31,4.31,0,0,0-4.31-4.31h0a4.28,4.28,0,0,0-1.23.2,9.91,9.91,0,0,0,.09-1.33,9.09,9.09,0,0,0-9.08-9.1h0a9.58,9.58,0,0,0-1.69.16,7.93,7.93,0,0,0-14.73,4h-.14a7.33,7.33,0,0,0,0,14.66h26.91A4.32,4.32,0,0,0,753.7,279.38Z" fill="#f5f5f5"/><path d="M301.29,89.31a5.62,5.62,0,0,0-5.62-5.62h0a5.2,5.2,0,0,0-1.62.23,10.58,10.58,0,0,0,.12-1.78,11.92,11.92,0,0,0-11.9-11.94h0a10.71,10.71,0,0,0-2.19.22,10.43,10.43,0,0,0-19.34,5.33h-.18a9.61,9.61,0,0,0,0,19.22h35.3A5.64,5.64,0,0,0,301.29,89.31Z" fill="#f5f5f5"/><path d="M722.45,224.49a15.09,15.09,0,0,0,.52-3.34c.41-6.94,7-5.84,12.65-6.78,4.39-.73-7.24-11.83,1.62-15.43a7.67,7.67,0,0,0,4.27-3,5,5,0,0,0-1.92-6.15,12.05,12.05,0,0,0-6.73-1.69c-1.46-1.78-.27-4.4,1.12-6.19s3.12-3.85,2.58-6c-.8-3.35-5.46-3.56-8.89-2.82-1.25-2-1.23-4.55-1.78-6.85s-2.42-4.69-4.79-4.41-3.56,2.78-5.75,3.29c-2.52.61-4.71-1.63-6.69-3.31s-5.46-2.72-6.81-.51c-.82,1.32-.34,3.17-1.19,4.46-1.46,2.26-5,.86-7.12-.74s-5.62-3-7.11-.82a9.05,9.05,0,0,0-.86,2.31c-1,3-4.22,4.43-6.71,6.34s-4.46,5.67-2.36,8c1,1.14,2.88,1.61,3.4,3.06.64,1.78-1.21,3.46-2.69,4.7-2.46,2.08-2.9,8.33.34,10,1.37.73,3.36.94,3.68,2.44s-1.05,2.38-2,3.41a6.43,6.43,0,0,0,1.11,9,7.24,7.24,0,0,0,.87.57c.76.37,1.78.68,2,1.5a3,3,0,0,1-.18,1.77,9.51,9.51,0,0,0-.32,3.56,1.58,1.58,0,0,0,.43,1.09,1.71,1.71,0,0,0,1,.28c4.68.22,6.92-1.44,9.78,2.62a3.24,3.24,0,0,0,1,1,3,3,0,0,0,1.28.32c3.22.27,5.34-1.78,8.26-2.12,4.07-.51,5,1.58,8.52,3.27C718.59,230,721.33,228.34,722.45,224.49Z" fill="#f5f5f5"/><path d="M668.53,218.66a15.59,15.59,0,0,0,.51-3.33c.41-6.94,7-5.84,12.65-6.78,4.4-.73-7.24-11.83,1.62-15.42a7.67,7.67,0,0,0,4.27-3,5,5,0,0,0-1.92-6.15,12.05,12.05,0,0,0-6.72-1.78c-1.46-1.78-.29-4.39,1.12-6.19s3.11-3.84,2.58-6c-.8-3.35-5.47-3.47-8.9-2.81-1.25-2-1.23-4.56-1.78-6.85s-2.42-4.7-4.79-4.41-3.55,2.77-5.74,3.29c-2.53.58-4.72-1.64-6.71-3.31s-5.44-2.72-6.81-.52c-.82,1.32-.32,3.17-1.18,4.47-1.47,2.26-5,.85-7.11-.75s-5.63-3-7.12-.84a9.4,9.4,0,0,0-.86,2.34c-1,3-4.21,4.43-6.7,6.33s-4.47,5.66-2.37,8c1,1.14,2.88,1.6,3.4,3.06.64,1.78-1.23,3.45-2.69,4.69-2.45,2.09-2.9,8.33.34,10,1.37.73,3.36.94,3.68,2.44s-1,2.38-1.95,3.41a6.43,6.43,0,0,0,1.1,9,5,5,0,0,0,.87.57c.77.38,1.78.68,2,1.5a3,3,0,0,1-.18,1.78,9.72,9.72,0,0,0-.32,3.56,1.6,1.6,0,0,0,.43,1.1,1.78,1.78,0,0,0,1,.28c4.66.22,6.92-1.44,9.79,2.62a3.18,3.18,0,0,0,1,1,3.3,3.3,0,0,0,1.3.34c3.22.25,5.34-1.78,8.25-2.12,4.08-.53,4.93,1.59,8.53,3.26C664.74,224.15,667.48,222.52,668.53,218.66Z" fill="#f5f5f5"/><path d="M663.35,184.37a16.33,16.33,0,0,0,.5-3.34c.41-6.94,7-5.84,12.65-6.78,4.39-.73-7.24-11.83,1.62-15.43a7.69,7.69,0,0,0,4.28-3,5.07,5.07,0,0,0-1.93-6.15,11.88,11.88,0,0,0-6.73-1.68c-1.44-1.78-.27-4.41,1.12-6.21s3.11-3.82,2.6-6c-.8-3.35-5.48-3.46-8.9-2.82-1.24-2-1.21-4.53-1.78-6.83s-2.43-4.71-4.78-4.43-3.56,2.78-5.77,3.29c-2.52.61-4.71-1.63-6.69-3.31s-5.46-2.72-6.81-.51c-.82,1.32-.34,3.17-1.19,4.46-1.46,2.26-5,.86-7.12-.74s-5.62-3-7.12-.82a9.12,9.12,0,0,0-.83,2.31c-1,3-4.24,4.43-6.73,6.34s-4.46,5.67-2.35,8c1,1.14,2.87,1.61,3.38,3.06.64,1.78-1.21,3.46-2.68,4.7-2.46,2.08-2.9,8.33.34,10,1.37.71,3.36.92,3.7,2.42s-1.07,2.38-2,3.43a6.46,6.46,0,0,0,2,9.57c.78.37,1.78.68,2,1.5a3.07,3.07,0,0,1-.18,1.77,9.45,9.45,0,0,0-.32,3.47,1.75,1.75,0,0,0,.43,1.09,1.71,1.71,0,0,0,1,.28c4.68.22,6.94-1.44,9.78,2.64a3.4,3.4,0,0,0,1,1,3,3,0,0,0,1.28.32c3.22.27,5.34-1.78,8.26-2.12,4.07-.51,4.94,1.59,8.54,3.28C659.54,189.85,662.28,188.25,663.35,184.37Z" fill="#f5f5f5"/><path d="M627.87,201.45a16.33,16.33,0,0,0,.5-3.34c.41-6.92,7-5.84,12.65-6.76,4.4-.75-7.24-11.85,1.62-15.43a7.88,7.88,0,0,0,4.29-3,5,5,0,0,0-1.94-6.14,11.87,11.87,0,0,0-6.73-1.69c-1.44-1.78-.26-4.41,1.12-6.21s3.12-3.82,2.58-6c-.8-3.35-5.46-3.46-8.89-2.82-1.25-2-1.21-4.53-1.78-6.83s-2.44-4.71-4.79-4.41-3.56,2.78-5.76,3.27c-2.53.61-4.72-1.63-6.69-3.31s-5.46-2.72-6.82-.51c-.81,1.32-.33,3.17-1.19,4.46-1.46,2.26-5,.86-7.11-.74s-5.63-3.05-7.12-.82a9.54,9.54,0,0,0-.84,2.31c-1,3-4.23,4.43-6.72,6.34s-4.47,5.67-2.35,8c1,1.14,2.86,1.61,3.38,3.06.64,1.78-1.21,3.46-2.69,4.72-2.45,2.08-2.9,8.31.34,10,1.37.71,3.36.92,3.7,2.43s-1.07,2.39-2,3.42a6.42,6.42,0,0,0,1.12,9,5.94,5.94,0,0,0,.85.56c.77.37,1.78.68,2,1.5a3,3,0,0,1-.18,1.77,9.9,9.9,0,0,0-.32,3.47,1.83,1.83,0,0,0,.43,1.09,1.78,1.78,0,0,0,1,.28c4.68.22,6.92-1.44,9.79,2.64a3.18,3.18,0,0,0,1,1,3,3,0,0,0,1.28.32c3.22.27,5.34-1.78,8.25-2.12,4.08-.51,5,1.59,8.54,3.28C624.07,206.93,626.81,205.3,627.87,201.45Z" fill="#f5f5f5"/><path d="M592,193.59a17.1,17.1,0,0,0,.52-3.33c.41-6.94,7-5.83,12.65-6.78,4.4-.73-7.24-11.83,1.62-15.42a7.83,7.83,0,0,0,4.27-3,5,5,0,0,0-1.92-6.16,12.05,12.05,0,0,0-6.73-1.69c-1.46-1.78-.28-4.39,1.12-6.19s3.12-3.84,2.58-6.05c-.8-3.35-5.46-3.56-8.89-2.81-1.25-2-1.23-4.56-1.78-6.85s-2.42-4.7-4.79-4.41-3.56,2.77-5.74,3.29c-2.53.58-4.72-1.64-6.71-3.31s-5.45-2.74-6.82-.52c-.81,1.32-.32,3.17-1.17,4.47-1.48,2.26-5,.85-7.12-.75s-5.62-3.06-7.11-.84a9.76,9.76,0,0,0-.84,2.34c-1,2.95-4.22,4.43-6.71,6.33s-4.46,5.66-2.36,8c1,1.14,2.86,1.6,3.4,3.06.64,1.78-1.23,3.45-2.69,4.7-2.46,2.08-2.9,8.32.34,10,1.35.73,3.36.94,3.68,2.44s-1,2.38-2,3.42a6.43,6.43,0,0,0,1.13,9,5.68,5.68,0,0,0,.83.55c.78.38,1.78.68,2,1.5a3,3,0,0,1-.18,1.78,9.45,9.45,0,0,0-.32,3.47,1.6,1.6,0,0,0,.43,1.1,1.7,1.7,0,0,0,1,.29c4.68.21,6.94-1.45,9.8,2.61a3.18,3.18,0,0,0,1,1,2.81,2.81,0,0,0,1.3.32c3.22.27,5.34-1.78,8.26-2.1,4.07-.53,4.93,1.57,8.52,3.26C588.22,199.05,591,197.41,592,193.59Z" fill="#f5f5f5"/><path d="M591.54,231.91a11.69,11.69,0,0,0,.39-2.63c.32-5.45,5.54-4.59,10-5.34,3.47-.59-5.7-9.32,1.28-12.15a6.05,6.05,0,0,0,3.36-2.35A3.94,3.94,0,0,0,605,204.6a9.37,9.37,0,0,0-5.34-1.33c-1.14-1.37-.21-3.45.89-4.88s2.46-3,2-4.77c-.62-2.63-4.31-2.72-7-2.2a19.38,19.38,0,0,1-1.44-5.34c-.48-1.78-1.92-3.7-3.77-3.47s-2.81,2.19-4.52,2.58c-2,.48-3.72-1.28-5.34-2.61s-4.28-2.14-5.33-.4c-.65,1-.25,2.49-.93,3.56-1.16,1.78-3.9.68-5.6-.58s-4.43-2.39-5.64-.65a7.93,7.93,0,0,0-.66,1.78c-.8,2.33-3.33,3.56-5.34,5s-3.56,4.47-1.87,6.28c.84.91,2.26,1.27,2.67,2.42.52,1.43-.94,2.73-2.1,3.7-1.94,1.64-2.29,6.55.27,7.89,1.07.57,2.63.74,2.9,1.92s-.84,1.88-1.55,2.7a5.09,5.09,0,0,0,.9,7.12,4.88,4.88,0,0,0,.65.43c.62.28,1.37.53,1.6,1.17a2.39,2.39,0,0,1-.16,1.42,7.39,7.39,0,0,0-.23,2.73,1.18,1.18,0,0,0,.32.85,1.27,1.27,0,0,0,.82.23c3.68.16,5.44-1.14,7.7,2.06a2.42,2.42,0,0,0,.77.82,2.06,2.06,0,0,0,1,.25c2.53.22,4.18-1.37,6.49-1.65,3.22-.41,3.9,1.24,6.73,2.56C588.55,236.29,590.8,234.94,591.54,231.91Z" fill="#f5f5f5"/><path d="M571.46,218.66a16.33,16.33,0,0,0,.49-3.33c.41-6.94,7-5.84,12.65-6.78,4.4-.73-7.24-11.83,1.62-15.42a7.75,7.75,0,0,0,4.29-3,5,5,0,0,0-1.94-6.15,12.05,12.05,0,0,0-6.72-1.78c-1.45-1.78-.27-4.39,1.12-6.19s3.11-3.84,2.59-6c-.8-3.35-5.48-3.47-8.89-2.81-1.25-2-1.21-4.56-1.78-6.85s-2.44-4.7-4.79-4.41-3.55,2.77-5.76,3.29c-2.53.58-4.72-1.64-6.69-3.31s-5.44-2.72-6.81-.52c-.82,1.32-.34,3.17-1.18,4.47-1.48,2.26-5,.85-7.12-.75s-5.62-3-7.11-.84a9.76,9.76,0,0,0-.84,2.34c-1,3-4.23,4.43-6.72,6.33s-4.47,5.66-2.35,8c1,1.14,2.86,1.6,3.38,3.06.64,1.78-1.21,3.45-2.69,4.69-2.45,2.09-2.88,8.33.34,10,1.37.73,3.36.94,3.7,2.44s-1.07,2.38-2,3.41a6.46,6.46,0,0,0,1.16,9.06,5.93,5.93,0,0,0,.81.53c.78.38,1.78.68,2,1.5a3,3,0,0,1-.18,1.78,9.32,9.32,0,0,0-.3,3.56,1.58,1.58,0,0,0,.41,1.1,1.78,1.78,0,0,0,1,.28c4.68.22,6.94-1.44,9.79,2.62a2.53,2.53,0,0,0,2.26,1.37c3.22.25,5.33-1.78,8.25-2.12,4.08-.53,5,1.59,8.54,3.26C567.67,224.15,570.39,222.52,571.46,218.66Z" fill="#f5f5f5"/><path d="M627.87,159.27a16.53,16.53,0,0,0,.5-3.35c.41-6.94,7-5.83,12.65-6.77,4.4-.73-7.24-11.84,1.62-15.43a7.85,7.85,0,0,0,4.29-3,5.08,5.08,0,0,0-1.94-6.16,12.09,12.09,0,0,0-6.73-1.78c-1.44-1.78-.26-4.39,1.12-6.19s3.12-3.84,2.58-6c-.8-3.34-5.46-3.56-8.89-2.81-1.25-2-1.21-4.54-1.78-6.83s-2.44-4.72-4.79-4.43-3.56,2.77-5.76,3.29c-2.53.61-4.72-1.64-6.69-3.31s-5.46-2.72-6.82-.51c-.81,1.31-.33,3.16-1.19,4.46-1.46,2.26-5,.86-7.11-.75s-5.63-3-7.12-.81a9.54,9.54,0,0,0-.84,2.31c-1,2.95-4.23,4.43-6.72,6.33s-4.47,5.68-2.35,8c1,1.14,2.86,1.6,3.38,3.06.64,1.78-1.21,3.45-2.69,4.7-2.45,2.08-2.9,8.32.34,10,1.37.71,3.36.93,3.7,2.42s-1.07,2.39-2,3.44a6.42,6.42,0,0,0,1.12,9,6.93,6.93,0,0,0,.85.56c.77.37,1.78.67,2,1.49a3,3,0,0,1-.18,1.78,9.67,9.67,0,0,0-.32,3.47,1.83,1.83,0,0,0,.43,1.09,1.87,1.87,0,0,0,1,.28c4.68.21,6.92-1.44,9.79,2.62a3.24,3.24,0,0,0,1,1.05,3.36,3.36,0,0,0,1.28.32c3.22.26,5.34-1.78,8.25-2.12,4.08-.52,5,1.58,8.54,3.27C624.07,164.75,626.81,163.11,627.87,159.27Z" fill="#f5f5f5"/><path d="M673.94,161.56a16.32,16.32,0,0,0,.49-3.34c.41-6.92,7-5.82,12.65-6.76,4.4-.75-7.24-11.85,1.62-15.43a7.88,7.88,0,0,0,4.29-3,5,5,0,0,0-1.94-6.13,11.71,11.71,0,0,0-6.72-1.78c-1.45-1.78-.27-4.42,1.12-6.2s3.11-3.84,2.58-6.06c-.8-3.33-5.47-3.45-8.9-2.81-1.24-2-1.21-4.54-1.78-6.84s-2.44-4.69-4.78-4.41-3.56,2.78-5.77,3.29c-2.53.59-4.71-1.65-6.69-3.32s-5.46-2.73-6.81-.52c-.82,1.34-.34,3.17-1.19,4.47-1.46,2.26-5,.85-7.12-.73s-5.62-3.06-7.12-.84a9.12,9.12,0,0,0-.83,2.31c-1,3-4.24,4.43-6.73,6.34s-4.47,5.67-2.35,8c1,1.13,2.87,1.6,3.38,3.06.64,1.78-1.21,3.45-2.68,4.71-2.46,2.08-2.9,8.31.33,10,1.37.71,3.37.94,3.7,2.44s-1.06,2.38-2,3.41a6.42,6.42,0,0,0,1.13,9,5.34,5.34,0,0,0,.84.56c.77.38,1.78.7,2,1.5a2.93,2.93,0,0,1-.17,1.78,9.51,9.51,0,0,0-.32,3.56,1.25,1.25,0,0,0,1.1,1.38,1.45,1.45,0,0,0,.36,0c4.67.21,6.92-1.45,9.78,2.63a3,3,0,0,0,1,1,2.7,2.7,0,0,0,1.28.32c3.22.27,5.34-1.78,8.26-2.12,4.07-.51,4.94,1.59,8.54,3.28C670.13,167.1,672.87,165.46,673.94,161.56Z" fill="#f5f5f5"/><path d="M701.9,180.46a17.89,17.89,0,0,0,.52-3.33c.41-6.94,7-5.83,12.65-6.78,4.39-.73-7.24-11.83,1.62-15.42a7.8,7.8,0,0,0,4.27-3,5.08,5.08,0,0,0-2-6.13,12.15,12.15,0,0,0-6.75-1.78c-1.44-1.78-.26-4.39,1.14-6.19s3.12-3.84,2.58-6.05c-.8-3.34-5.46-3.56-8.89-2.81-1.25-2-1.23-4.56-1.78-6.85s-2.42-4.7-4.79-4.41-3.56,2.77-5.74,3.29c-2.53.6-4.72-1.64-6.71-3.31s-5.45-2.72-6.82-.52c-.81,1.32-.32,3.17-1.17,4.47-1.48,2.26-5,.85-7.12-.75s-5.62-3-7.11-.83a9.69,9.69,0,0,0-.84,2.33c-1,3-4.22,4.43-6.71,6.33s-4.46,5.68-2.36,8c1,1.14,2.86,1.6,3.38,3.06.65,1.78-1.21,3.45-2.67,4.7-2.46,2.08-2.9,8.32.34,10,1.35.73,3.34,1,3.68,2.44s-1.07,2.38-2,3.42a6.43,6.43,0,0,0,1.13,9,6.7,6.7,0,0,0,.83.56c.78.37,1.78.67,2,1.49a2.94,2.94,0,0,1-.2,1.78,10.16,10.16,0,0,0-.3,3.56,1.25,1.25,0,0,0,1.43,1.37c4.68.21,6.94-1.44,9.79,2.61a3.4,3.4,0,0,0,1,1,3.12,3.12,0,0,0,1.3.32c3.21.25,5.34-1.78,8.26-2.11,4.07-.54,4.93,1.58,8.52,3.25C698.11,186,700.85,184.32,701.9,180.46Z" fill="#f5f5f5"/><path d="M693.42,204.26S681.73,220.79,677.69,226s-24.21,37.93-27,59.55c-.31,2.31-.59,4.29-.88,6,8.69,57.27,7.33,275.93,7,293.87H621.29c6.76-134.38,5.52-319,4.64-324.67-.9-6-12.45-28.73-30.15-38.07s-33.1-40.28-33.1-40.28h5.66s10.5,19,25.43,29.46a58.08,58.08,0,0,0,6.7,4,95.36,95.36,0,0,1,5.95-33.43l3.06,2.83c-4.13,16.88-3.56,27.7-2.33,33.91a61.63,61.63,0,0,1,15.42,10.34c15.5-20.14,24.2-66.19,24.2-66.19l4,2.17a237.11,237.11,0,0,1-5.13,28.24c-2.9,11.92-11.44,34.35-15.41,44.48a105.11,105.11,0,0,1,11.69,22,9.83,9.83,0,0,1,1.5-1.78c10.09-9.13,29.05-52.22,29.05-52.22,4.59-10-2.42-36.31-2.42-36.31h5.34l2.37,23L691,178.36l2.42,2L679.31,198.5l-7.27,23,19-20.79Z" fill="#f5f5f5"/><path d="M158.26,237.09a16.57,16.57,0,0,1-.48-3.13c-.37-6.53-6.62-5.5-11.92-6.39-4.13-.69,6.83-11.15-1.51-14.52a7.46,7.46,0,0,1-4-2.81,4.78,4.78,0,0,1,1.78-5.8,11.14,11.14,0,0,1,6.35-1.58c1.35-1.66.25-4.15-1.07-5.84s-2.93-3.56-2.43-5.71c.76-3.15,5.16-3.25,8.34-2.63,1.17-1.91,1.14-4.29,1.78-6.46s2.29-4.43,4.52-4.15,3.36,2.62,5.34,3.1c2.38.55,4.44-1.55,6.31-3.13s5.13-2.56,6.42-.48c.77,1.24.31,3,1.11,4.2,1.39,2.13,4.68.82,6.72-.7s5.34-2.86,6.73-.78a9,9,0,0,1,.8,2.19c1,2.79,4,4.18,6.32,6s4.21,5.34,2.22,7.52c-1,1.09-2.71,1.52-3.19,2.89-.62,1.78,1.14,3.25,2.53,4.43,2.3,2,2.72,7.84-.32,9.44-1.28.68-3.17.88-3.56,2.3s1,2.24,1.78,3.22a6,6,0,0,1-.92,8.44l-.08.06a5,5,0,0,1-.78.52c-.73.36-1.63.64-1.9,1.41a2.86,2.86,0,0,0,.18,1.78,9.39,9.39,0,0,1,.3,3.25,1.55,1.55,0,0,1-.41,1,1.38,1.38,0,0,1-1,.27c-4.41.2-6.53-1.35-9.22,2.47a3.15,3.15,0,0,1-.92,1,2.84,2.84,0,0,1-1.21.3c-3,.25-5-1.63-7.78-2-3.84-.5-4.66,1.5-8,3.08C161.84,242.27,159.26,240.72,158.26,237.09Z" fill="#f5f5f5"/><path d="M209,231.61a14.62,14.62,0,0,1-.47-3.15c-.39-6.51-6.62-5.48-11.92-6.37-4.14-.69,6.82-11.15-1.53-14.53a7.49,7.49,0,0,1-4-2.8,4.78,4.78,0,0,1,1.78-5.8,11.13,11.13,0,0,1,6.34-1.58c1.37-1.66.25-4.15-1.07-5.84s-2.94-3.56-2.44-5.71c.77-3.15,5.16-3.25,8.35-2.65,1.17-1.89,1.15-4.27,1.78-6.44s2.27-4.43,4.5-4.16,3.36,2.61,5.33,3.11c2.39.55,4.45-1.55,6.32-3.13s5.14-2.56,6.42-.48c.77,1.24.31,3,1.11,4.2,1.38,2.13,4.68.82,6.72-.7s5.34-2.86,6.73-.78a9,9,0,0,1,.8,2.19c1,2.77,4,4.18,6.31,6s4.22,5.34,2.23,7.53c-1,1.08-2.71,1.51-3.19,2.88-.6,1.78,1.14,3.25,2.53,4.43,2.31,2,2.72,7.83-.32,9.44-1.28.68-3.17.88-3.47,2.3s1,2.24,1.78,3.22a6.06,6.06,0,0,1-1,8.5,6.61,6.61,0,0,1-.78.52c-.73.36-1.62.64-1.89,1.41a3,3,0,0,0,.16,1.78,8.7,8.7,0,0,1,.31,3.25,1.5,1.5,0,0,1-.41,1,1.61,1.61,0,0,1-1,.27c-4.4.2-6.53-1.35-9.22,2.47a3.37,3.37,0,0,1-.92,1,2.67,2.67,0,0,1-1.21.3c-3,.25-5-1.63-7.78-2-3.84-.5-4.64,1.5-8,3.08C212.56,236.79,210.05,235.24,209,231.61Z" fill="#f5f5f5"/><path d="M213.88,199.3a15,15,0,0,1-.48-3.13c-.38-6.53-6.62-5.5-11.92-6.39-4.13-.69,6.83-11.15-1.51-14.52a7.46,7.46,0,0,1-4-2.81,4.75,4.75,0,0,1,1.78-5.8,11.3,11.3,0,0,1,6.35-1.58c1.35-1.66.25-4.15-1.07-5.84s-2.94-3.56-2.44-5.71c.77-3.13,5.16-3.25,8.35-2.63,1.17-1.91,1.14-4.29,1.78-6.46s2.29-4.43,4.52-4.15,3.36,2.62,5.33,3.1c2.39.55,4.45-1.55,6.32-3.13s5.12-2.56,6.42-.48c.77,1.24.3,3,1.1,4.2,1.39,2.13,4.68.82,6.73-.7s5.34-2.86,6.73-.78a10.09,10.09,0,0,1,.8,2.19c1,2.79,4,4.18,6.31,6s4.22,5.34,2.23,7.53c-1,1.08-2.71,1.51-3.19,2.88-.6,1.78,1.14,3.25,2.53,4.43,2.31,2,2.72,7.84-.32,9.45-1.28.67-3.17.87-3.56,2.29s1,2.24,1.78,3.22a6.07,6.07,0,0,1-1,8.52,7.52,7.52,0,0,1-.75.5c-.73.36-1.62.64-1.9,1.41a2.93,2.93,0,0,0,.17,1.78,9.25,9.25,0,0,1,.31,3.27,1.5,1.5,0,0,1-.41,1,1.38,1.38,0,0,1-1,.27c-4.42.2-6.53-1.35-9.22,2.47a3.07,3.07,0,0,1-.93,1,2.84,2.84,0,0,1-1.21.3c-3,.25-5-1.63-7.77-2-3.84-.48-4.66,1.5-8,3.08C217.45,204.48,214.88,202.93,213.88,199.3Z" fill="#f5f5f5"/><path d="M247.29,215.4a16,16,0,0,1-.46-3.15c-.39-6.53-6.62-5.5-11.92-6.37-4.15-.69,6.81-11.15-1.53-14.53a7.28,7.28,0,0,1-4-2.81,4.74,4.74,0,0,1,1.78-5.79,11.36,11.36,0,0,1,6.33-1.6c1.37-1.65.25-4.14-1.07-5.83s-2.93-3.56-2.42-5.7c.75-3.15,5.15-3.25,8.33-2.65,1.17-1.9,1.16-4.29,1.78-6.44s2.28-4.43,4.5-4.16S252,159,254,159.46c2.36.57,4.43-1.54,6.3-3.11s5.14-2.58,6.42-.5c.76,1.25.3,3,1.1,4.22,1.39,2.12,4.68.8,6.73-.69s5.33-2.89,6.72-.79a8,8,0,0,1,.8,2.17c1,2.8,4,4.18,6.34,6s4.2,5.34,2.2,7.53c-1,1.06-2.7,1.51-3.18,2.88-.61,1.78,1.14,3.24,2.52,4.43,2.32,2,2.73,7.83-.32,9.43-1.28.67-3.16.89-3.46,2.29s1,2.25,1.77,3.22a6.08,6.08,0,0,1-1,8.54h0a5.17,5.17,0,0,1-.73.49c-.75.34-1.64.63-1.91,1.39a3,3,0,0,0,.16,1.78,8.8,8.8,0,0,1,.3,3.27,1.48,1.48,0,0,1-.39,1,1.7,1.7,0,0,1-1,.27c-4.39.2-6.53-1.37-9.21,2.47a3.07,3.07,0,0,1-.93,1,3,3,0,0,1-1.21.31c-3,.24-5-1.66-7.77-2-3.85-.5-4.65,1.48-8,3.08C251,220.56,248.31,219,247.29,215.4Z" fill="#f5f5f5"/><path d="M281.08,208a13.87,13.87,0,0,1-.48-3.14c-.39-6.53-6.62-5.48-11.92-6.37-4.15-.7,6.83-11.16-1.53-14.54a7.28,7.28,0,0,1-4-2.81,4.74,4.74,0,0,1,1.78-5.78,11.17,11.17,0,0,1,6.33-1.59c1.37-1.65.27-4.14-1.05-5.83s-2.94-3.56-2.44-5.71c.75-3.15,5.14-3.26,8.33-2.65,1.17-1.91,1.15-4.27,1.78-6.45s2.29-4.43,4.5-4.16,3.38,2.62,5.43,3.12c2.38.55,4.43-1.55,6.29-3.14s5.15-2.56,6.43-.48c.78,1.25.32,3,1.12,4.2,1.38,2.14,4.68.82,6.7-.69s5.34-2.88,6.75-.78a8.86,8.86,0,0,1,.78,2.18c1,2.78,4,4.17,6.33,6s4.2,5.34,2.23,7.53c-1,1.07-2.71,1.51-3.2,2.88-.61,1.78,1.15,3.26,2.52,4.43,2.32,2,2.74,7.83-.32,9.45-1.28.66-3.15.87-3.56,2.29s1,2.25,1.78,3.21a6,6,0,0,1-1,8.5l0,0a6.92,6.92,0,0,1-.77.52c-.73.33-1.63.64-1.9,1.4a2.73,2.73,0,0,0,.18,1.69,9.23,9.23,0,0,1,.28,3.27,1.48,1.48,0,0,1-.39,1,1.62,1.62,0,0,1-1,.26c-4.39.2-6.53-1.35-9.21,2.48a3.12,3.12,0,0,1-.91,1,2.9,2.9,0,0,1-1.23.3c-3,.25-5-1.64-7.76-2-3.84-.49-4.66,1.5-8,3.08C284.65,213.16,282.07,211.59,281.08,208Z" fill="#f5f5f5"/><path d="M281.5,244.1a12.81,12.81,0,0,1-.28-2.47c-.3-5.13-5.2-4.33-9.38-5-3.25-.53,5.34-8.77-1.21-11.44a5.73,5.73,0,0,1-3.16-2.21,3.73,3.73,0,0,1,1.44-4.55,8.78,8.78,0,0,1,5-1.27c1.07-1.29.2-3.25-.84-4.59s-2.31-2.84-1.92-4.48c.61-2.49,4.06-2.58,6.57-2.08a18.33,18.33,0,0,0,1.35-5.09c.46-1.69,1.78-3.56,3.56-3.27s2.65,2.06,4.27,2.43,3.56-1.21,5-2.45,4-2,5.05-.37c.61,1,.25,2.34.88,3.31,1.08,1.67,3.68.64,5.33-.56s4.18-2.26,5.34-.62a6.6,6.6,0,0,1,.62,1.78c.77,2.19,3.15,3.29,5,4.7s3.32,4.21,1.77,5.92c-.78.86-2.13,1.19-2.5,2.28s.89,2.56,2,3.56c1.78,1.55,2.15,6.17-.25,7.43-1,.52-2.49.7-2.74,1.78s.8,1.78,1.46,2.55A4.74,4.74,0,0,1,313,236a3.76,3.76,0,0,1-.68.44c-.57.29-1.28.5-1.49,1.11a2.16,2.16,0,0,0,.14,1.35,7.13,7.13,0,0,1,.23,2.56,1.19,1.19,0,0,1-.32.82,1.29,1.29,0,0,1-.76.21c-3.56.15-5.15-1.08-7.26,1.94a2.38,2.38,0,0,1-.71.77,2.31,2.31,0,0,1-1,.25c-2.38.19-4-1.3-6.12-1.59-3-.37-3.66,1.18-6.33,2.44C284.33,248.16,282.31,247,281.5,244.1Z" fill="#f5f5f5"/><path d="M300.44,231.61a16,16,0,0,1-.49-3.15c-.37-6.51-6.61-5.48-11.92-6.37-4.12-.69,6.84-11.15-1.51-14.53a7.49,7.49,0,0,1-4-2.8,4.78,4.78,0,0,1,1.78-5.8,11.14,11.14,0,0,1,6.35-1.58c1.36-1.66.25-4.15-1.06-5.84s-2.94-3.56-2.44-5.71c.76-3.15,5.16-3.25,8.34-2.65,1.18-1.89,1.14-4.27,1.78-6.44s2.3-4.43,4.52-4.16,3.36,2.61,5.34,3.11c2.38.55,4.45-1.55,6.32-3.13s5.12-2.56,6.42-.48c.76,1.24.3,3,1.1,4.2,1.39,2.13,4.68.82,6.73-.7s5.33-2.86,6.72-.78a9,9,0,0,1,.8,2.19c1,2.77,4,4.18,6.32,6s4.21,5.34,2.22,7.53c-1,1.08-2.7,1.51-3.18,2.88-.61,1.78,1.14,3.25,2.52,4.43,2.32,2,2.73,7.83-.32,9.44-1.28.68-3.16.88-3.55,2.3s1,2.24,1.86,3.22A6.07,6.07,0,0,1,340,221.3a5.71,5.71,0,0,1-.77.51c-.73.36-1.62.64-1.91,1.41a2.86,2.86,0,0,0,.18,1.78,8.93,8.93,0,0,1,.3,3.25,1.19,1.19,0,0,1-1.41,1.27c-4.41.2-6.53-1.35-9.21,2.47a3.41,3.41,0,0,1-.93,1,2.84,2.84,0,0,1-1.21.3c-3,.25-5-1.63-7.77-2-3.85-.5-4.67,1.5-8,3.08C304,236.79,301.43,235.24,300.44,231.61Z" fill="#f5f5f5"/><path d="M247.29,175.65a15.87,15.87,0,0,1-.46-3.14c-.39-6.52-6.62-5.48-11.92-6.37-4.15-.7,6.81-11.16-1.53-14.54a7.37,7.37,0,0,1-4-2.79,4.75,4.75,0,0,1,1.78-5.8,11.09,11.09,0,0,1,6.33-1.59c1.37-1.65.25-4.14-1.07-5.83s-2.93-3.56-2.42-5.71c.75-3.15,5.15-3.26,8.33-2.65,1.17-1.89,1.16-4.27,1.78-6.44s2.28-4.44,4.5-4.15,3.36,2.61,5.34,3.1c2.36.55,4.43-1.55,6.3-3.14s5.14-2.56,6.42-.48c.76,1.25.3,3,1.1,4.2,1.39,2.14,4.68.82,6.73-.69s5.33-2.87,6.72-.78A8.27,8.27,0,0,1,282,121c1,2.8,4,4.19,6.34,6s4.2,5.34,2.2,7.53c-1,1.09-2.7,1.51-3.18,2.88-.61,1.78,1.14,3.26,2.52,4.43,2.32,2,2.73,7.83-.32,9.45-1.28.68-3.16.87-3.46,2.3s1,2.24,1.77,3.22a6.06,6.06,0,0,1-1,8.5h0a5.4,5.4,0,0,1-.74.51c-.75.35-1.64.64-1.91,1.4a3,3,0,0,0,.16,1.78,8.67,8.67,0,0,1,.43,3.24,1.17,1.17,0,0,1-1,1.31,1.45,1.45,0,0,1-.36,0c-4.4.19-6.53-1.35-9.22,2.47a3,3,0,0,1-.92,1,2.84,2.84,0,0,1-1.21.3c-3,.25-5-1.64-7.78-2-3.84-.5-4.64,1.49-8,3.08C251,180.83,248.31,179.36,247.29,175.65Z" fill="#f5f5f5"/><path d="M203.92,177.88a14,14,0,0,1-.48-3.15c-.4-6.53-6.62-5.5-11.93-6.37-4.14-.69,6.84-11.16-1.53-14.54a7.28,7.28,0,0,1-4-2.81,4.75,4.75,0,0,1,1.78-5.78,11.13,11.13,0,0,1,6.34-1.58c1.37-1.68.26-4.17-1-5.86s-2.94-3.55-2.44-5.69c.75-3.15,5.16-3.26,8.33-2.65,1.17-1.9,1.15-4.27,1.78-6.44s2.29-4.43,4.5-4.16,3.38,2.61,5.33,3.09c2.39.57,4.45-1.53,6.32-3.11s5.12-2.56,6.4-.48c.79,1.24.33,3,1.13,4.2,1.38,2.13,4.67.8,6.7-.7s5.34-2.88,6.75-.78a8.54,8.54,0,0,1,.78,2.19c1,2.77,4,4.16,6.33,6s4.2,5.34,2.23,7.52c-1,1.07-2.71,1.52-3.21,2.89-.6,1.78,1.16,3.25,2.55,4.43,2.29,2,2.72,7.82-.34,9.43-1.28.67-3.15.89-3.56,2.29s1,2.26,1.78,3.22a6.06,6.06,0,0,1-1,8.51h0a5.77,5.77,0,0,1-.77.52c-.73.34-1.63.64-1.9,1.41a2.73,2.73,0,0,0,.18,1.69,9.23,9.23,0,0,1,.28,3.27,1.48,1.48,0,0,1-.39,1,1.63,1.63,0,0,1-1,.27c-4.41.19-6.53-1.37-9.23,2.47a3,3,0,0,1-.91,1,2.84,2.84,0,0,1-1.21.3c-3,.25-5-1.65-7.78-2-3.84-.5-4.66,1.48-8,3.08C207.49,183,204.91,181.51,203.92,177.88Z" fill="#f5f5f5"/><path d="M177.55,195.63a15.16,15.16,0,0,1-.46-3.14c-.4-6.53-6.62-5.5-11.92-6.37-4.15-.7,6.81-11.16-1.53-14.54a7.28,7.28,0,0,1-4-2.81,4.73,4.73,0,0,1,1.78-5.78,11.14,11.14,0,0,1,6.34-1.59c1.37-1.67.25-4.16-1.07-5.85s-2.92-3.56-2.42-5.69c.75-3.15,5.14-3.26,8.33-2.65,1.17-1.91,1.15-4.27,1.78-6.44s2.27-4.43,4.5-4.17,3.36,2.62,5.33,3.1c2.37.57,4.43-1.53,6.3-3.12s5.14-2.56,6.43-.48c.76,1.25.3,3,1.1,4.2,1.39,2.14,4.68.8,6.72-.69s5.34-2.88,6.75-.78a8.86,8.86,0,0,1,.78,2.18c1,2.78,4,4.17,6.33,6s4.2,5.34,2.21,7.53c-1,1.07-2.7,1.51-3.19,2.88-.6,1.78,1.14,3.26,2.53,4.43,2.31,2,2.72,7.83-.32,9.43-1.28.68-3.17.89-3.56,2.3s1,2.26,1.78,3.22a6.09,6.09,0,0,1-1,8.54,6.39,6.39,0,0,1-.74.5c-.74.33-1.63.64-1.9,1.4a2.93,2.93,0,0,0,.16,1.78,8.8,8.8,0,0,1,.3,3.27,1.48,1.48,0,0,1-.39,1,1.76,1.76,0,0,1-1,.26c-4.39.2-6.53-1.37-9.21,2.48a3.12,3.12,0,0,1-.91,1,2.91,2.91,0,0,1-1.23.31c-3,.25-5-1.66-7.77-2-3.85-.49-4.65,1.48-8,3.08C181.14,200.79,178.56,199.26,177.55,195.63Z" fill="#f5f5f5"/><path d="M185.55,218.07s11,15.59,14.82,20.53,22.8,35.73,25.39,56.08c.27,2.17.54,4.07.8,5.68-8.16,54-6.88,271.87-6.6,288.76h36.58c-4-166.93-8.23-312.44-7.43-317.76.87-5.63,11.69-27.07,28.46-35.87s31.17-37.93,31.17-37.93h-5.33s-9.9,17.79-24,27.73a53.14,53.14,0,0,1-6.34,3.76,89.3,89.3,0,0,0-5.58-31.49l-2.88,2.65c3.89,15.92,3.38,26.1,2.2,32a57.9,57.9,0,0,0-14.5,9.79c-14.57-19-22.77-62.27-22.77-62.27l-3.74,2.05a221.47,221.47,0,0,0,4.82,26.69c2.72,11.22,10.68,32.36,14.52,42a99.26,99.26,0,0,0-11,20.67,8.44,8.44,0,0,0-1.41-1.69c-9.5-8.59-27.36-49.18-27.36-49.18C201,210.78,207.63,186,207.63,186h-5l-2.22,21.65L188,194l-2.28,1.9L199,213l6.72,21.53L187.9,214.74Z" fill="#f5f5f5"/><rect x="115.99" y="441.57" width="637.69" height="21.62" fill="#e0e0e0"/><polygon points="738.68 575.81 768.71 575.81 768.71 386.2 753.7 375.53 738.68 386.2 738.68 575.81" fill="#e6e6e6"/><polygon points="685.54 575.81 715.57 575.81 715.57 386.2 700.55 375.53 685.54 386.2 685.54 575.81" fill="#e6e6e6"/><polygon points="632.39 575.81 662.42 575.81 662.42 386.2 647.41 375.53 632.39 386.2 632.39 575.81" fill="#e6e6e6"/><polygon points="579.25 575.81 609.28 575.81 609.28 386.2 594.26 375.53 579.25 386.2 579.25 575.81" fill="#e6e6e6"/><polygon points="526.11 575.81 556.14 575.81 556.14 386.2 541.12 375.53 526.11 386.2 526.11 575.81" fill="#e6e6e6"/><polygon points="472.96 575.81 502.99 575.81 502.99 386.2 487.98 375.53 472.96 386.2 472.96 575.81" fill="#e6e6e6"/><polygon points="419.83 575.81 449.87 575.81 449.87 386.2 434.85 375.53 419.83 386.2 419.83 575.81" fill="#e6e6e6"/><polygon points="366.69 575.81 396.72 575.81 396.72 386.2 381.71 375.53 366.69 386.2 366.69 575.81" fill="#e6e6e6"/><polygon points="313.55 575.81 343.58 575.81 343.58 386.2 328.56 375.53 313.55 386.2 313.55 575.81" fill="#e6e6e6"/><polygon points="260.4 575.81 290.44 575.81 290.44 386.2 275.42 375.53 260.4 386.2 260.4 575.81" fill="#e6e6e6"/><polygon points="207.28 575.81 237.29 575.81 237.29 386.2 222.28 375.53 207.28 386.2 207.28 575.81" fill="#e6e6e6"/><polygon points="154.13 575.81 184.17 575.81 184.17 386.2 169.15 375.53 154.13 386.2 154.13 575.81" fill="#e6e6e6"/><polygon points="100.99 575.81 131.02 575.81 131.02 386.2 116.01 375.53 100.99 386.2 100.99 575.81" fill="#e6e6e6"/><path d="M123.82,577.89s-5-16.65,5.09-20,16-11.1,15.69-19.91,10.25-17.38,18.18-9.13,6.89-6.35,17.47-9.89,19.57,5,16.66,12.93,7.54,12.8,20.09,6.11,26.27,5.48,23.62,15-.48,10.58,7.44,7.4,22.06,5.82,17.1,17.47S123.82,577.89,123.82,577.89Z" fill="#e0e0e0"/><path d="M658.15,575.49s-3.84-12.94,4-15.52,12.46-8.61,12.19-15.46,8-13.48,14.11-7.12,5.34-4.92,13.56-7.68,15.19,3.93,12.93,10,5.86,9.91,15.57,4.72,20.39,4.27,18.34,11.65-.37,8.22,5.77,5.75,17.13,4.53,13.29,13.57S658.15,575.49,658.15,575.49Z" fill="#e0e0e0"/><path d="M465,577c-8.9-8.9-.89-24,8-25.8s17.79-17.44,18.26-27.4,16.44-40.62,41.34-21.69,17.4,2.8,35.4-2.5,29.39,10,21.47,21.45c0,0,18.11-4.53,25.57,12.37s0,27.4,0,27.4,34-1,31,20S465,577,465,577Z" fill="#e0e0e0"/><path d="M781.42,577.55v24.38H94.66V577.55a7.26,7.26,0,0,1,6.85-7.64H774.23a7.26,7.26,0,0,1,7.2,7.32h0C781.42,577.33,781.42,577.44,781.42,577.55Z" fill="#ebebeb"/><rect x="133.8" y="569.9" width="42.7" height="32.02" fill="#f5f5f5"/><rect x="215.64" y="569.9" width="40.92" height="32.02" fill="#f5f5f5"/><rect x="295.7" y="569.9" width="42.7" height="32.02" fill="#f5f5f5"/><rect x="377.54" y="569.9" width="40.92" height="32.02" fill="#f5f5f5"/><rect x="457.61" y="569.9" width="40.92" height="32.02" fill="#f5f5f5"/><rect x="537.67" y="569.9" width="42.7" height="32.02" fill="#f5f5f5"/><rect x="619.51" y="569.9" width="40.92" height="32.02" fill="#f5f5f5"/><rect x="699.57" y="569.9" width="42.7" height="32.02" fill="#f5f5f5"/></g><rect x="702.49" y="478.01" width="60.1" height="42.01" fill="#ffffff"/><path d="M683.17,468.49V663.64h83V468.49Zm73.92,39.25H730.71V491.83a6.7,6.7,0,0,1,6.71-6.71h13a6.72,6.72,0,0,1,6.7,6.71Z" fill="#0a0a0a"/><path d="M683.17,468.49V663.64h83V468.49Zm73.92,39.25H730.71V491.83a6.7,6.7,0,0,1,6.71-6.71h13a6.72,6.72,0,0,1,6.7,6.71Z" fill="#fff" opacity="0.6" style="isolation:isolate"/><rect x="683.17" y="468.49" width="35.58" height="195.17" fill="#fff" opacity="0.4" style="isolation:isolate"/><rect x="681.03" y="461.48" width="87.05" height="12.85" fill="#0a0a0a"/><rect x="681.03" y="461.48" width="40.17" height="12.85" fill="#fff" opacity="0.2" style="isolation:isolate"/><path d="M84,600.31s10.9-23.77-1.55-47.22-16-29-8.13-33.8S85.93,538,85.93,538s6.69-16.21,1.18-33.16-9-44.59-1.46-47.54,1.44,34.46,8,47.22a110.43,110.43,0,0,0,6.4-27.83c.91-13.63-.5-35.37,5.46-40.92s9.77-1.78,3.92,28.34a314.69,314.69,0,0,0-5.82,54.5s12.9-39.41,21.62-40.59,8.66,11.62,1.24,22.71-21.76,30.92-24.11,41.13c0,0,14.24-29.68,27-20.58s-11,27-21.71,33.5-18,47.07-18,47.07Z" fill="#0a0a0a"/><path d="M84,600.31s10.9-23.77-1.55-47.22-16-29-8.13-33.8S85.93,538,85.93,538s6.69-16.21,1.18-33.16-9-44.59-1.46-47.54,1.44,34.46,8,47.22a110.43,110.43,0,0,0,6.4-27.83c.91-13.63-.5-35.37,5.46-40.92s9.77-1.78,3.92,28.34a314.69,314.69,0,0,0-5.82,54.5s12.9-39.41,21.62-40.59,8.66,11.62,1.24,22.71-21.76,30.92-24.11,41.13c0,0,14.24-29.68,27-20.58s-11,27-21.71,33.5-18,47.07-18,47.07Z" opacity="0.2" style="isolation:isolate"/><path d="M92.64,610.08s-10.68-24,2.12-47.2,16.4-28.72,8.52-33.65-11.8,18.58-11.8,18.58-6.49-16.3-.76-33.18,9.52-44.48,2-47.53S91,501.55,84.17,514.2a110.23,110.23,0,0,1-6.07-27.84c-.74-13.63.93-35.37-5-41s-9.75-1.78-4.25,28.29A315,315,0,0,1,74,528.21s-12.46-39.62-21.14-40.92S44,498.76,51.4,510,72.75,541.19,75,551.44c0,0-13.85-29.89-26.69-21s10.78,27.19,21.35,33.81,17.47,47.34,17.47,47.34Z" fill="#0a0a0a"/><polygon points="43.68 593 131.35 593 124.26 655.75 50.78 655.75 43.68 593" fill="#ffffff"/><polygon points="472.41 643.1 480.7 643.1 499.68 525.89 468.39 344.86 460.74 344.86 485.8 528.33 472.41 643.1" fill="#a7a9ac"/><polygon points="592.66 529.3 606.33 643.1 598.03 643.1 579.35 529.3 592.66 529.3" fill="#a7a9ac"/><path d="M511.78,576H512a18.65,18.65,0,0,0,3.79-1.62,4,4,0,0,0,2.1-2.13,1.92,1.92,0,0,0-.63-2,1.47,1.47,0,0,0-1.25-.47c-1.06.23-2.2,1.66-3.07,3a5.7,5.7,0,0,0-.7-3.81,1.36,1.36,0,0,0-1.66-.29,1.76,1.76,0,0,0-1,1.16c-.54,2.1,2.06,5.6,2.2,5.79l.18-.18h0l-.19.2-.15.23Zm.19-1.42a1.29,1.29,0,0,0-.17.33,7.79,7.79,0,0,1-1.59-4.67,1,1,0,0,1,.49-.66h.17a.72.72,0,0,1,.86.12,7.33,7.33,0,0,1,.26,4.91Zm.6.5c1-1.89,2.52-4.34,3.59-4.51a.69.69,0,0,1,.62.23,1.35,1.35,0,0,1,.42,1.23c-.24,1-1.86,2.1-4.61,3.05Z" fill="#0a0a0a"/><polygon points="498.31 587.45 509.83 577.08 492.57 547.45 481.08 557.84 498.31 587.45" fill="#f9b499"/><path d="M509.74,574.88l-14.95,8.89a1.09,1.09,0,0,0-.47,1.46h0l6.32,12.27a2.72,2.72,0,0,0,3.71,1c5.16-3.18,7.48-5,14-8.93,4-2.4,12.23-6.78,17.22-10.93s.74-9-1.73-7.67c-5.91,3.12-15.91,4-21.4,3.32A4.33,4.33,0,0,0,509.74,574.88Z" fill="#ffffff"/><path d="M427.12,640l.1,0h.11a18.9,18.9,0,0,0,4,1,4.08,4.08,0,0,0,3-.42,1.93,1.93,0,0,0,.69-2,1.41,1.41,0,0,0-.71-1.12c-1-.47-2.76,0-4.29.56a5.73,5.73,0,0,0,1.76-3.45,1.39,1.39,0,0,0-1.15-1.25,1.76,1.76,0,0,0-1.52.31c-1.7,1.34-1.75,5.71-1.75,5.94h0a1.06,1.06,0,0,0-.25.09Zm1-1-.33.17a7.81,7.81,0,0,1,1.56-4.68,1,1,0,0,1,.8-.23l.15.08c.5.13.61.39.61.61a7.34,7.34,0,0,1-2.77,4.06Zm.18.77c1.92-.91,4.63-1.92,5.58-1.41a.66.66,0,0,1,.36.56,1.34,1.34,0,0,1-.41,1.24c-.79.63-2.76.53-5.52-.38Z" fill="#0a0a0a"/><polygon points="409.46 641 424.91 639.73 429.14 605.7 413.71 607 409.46 641" fill="#f9b499"/><path d="M426.17,637.93l-17.28-2a1.08,1.08,0,0,0-1.25.88h0l-2.41,13.59a2.73,2.73,0,0,0,2.36,3c6,.6,9,.58,16.57,1.4,4.65.52,13.84,2,20.33,1.74s6-6.7,3.27-7.15c-6.59-1.1-15.09-6.44-19-10.33A4.25,4.25,0,0,0,426.17,637.93Z" fill="#ffffff"/><polygon points="152.29 643.1 160.59 643.1 179.57 525.89 140.14 344.86 132.48 346.82 165.69 528.33 152.29 643.1" fill="#a7a9ac"/><polygon points="245.06 531.48 258.45 643.1 250.15 643.1 231.74 531.48 245.06 531.48" fill="#a7a9ac"/><polygon points="230.12 516.94 230.12 530.93 606.52 530.93 591.56 516.94 230.12 516.94" fill="#d1d3d4"/><polygon points="164.53 516.94 164.53 530.93 261.05 530.93 248.01 516.94 164.53 516.94" fill="#bcbec0"/><polygon points="523.6 393.39 533.22 428.89 134.2 428.89 124.58 393.39 523.6 393.39" fill="#bcbec0"/><polygon points="523.6 393.39 530.92 420.4 136.76 420.4 129.45 393.39 523.6 393.39" fill="#d1d3d4"/><polygon points="513.54 353.2 523.16 388.7 124.14 388.7 114.52 353.2 513.54 353.2" fill="#bcbec0"/><polygon points="513.54 353.2 520.85 380.2 126.7 380.2 119.39 353.2 513.54 353.2" fill="#d1d3d4"/><polygon points="534.47 433.51 544.08 469 145.07 469 135.45 433.51 534.47 433.51" fill="#bcbec0"/><polygon points="534.47 433.51 541.78 460.51 147.63 460.51 140.32 433.51 534.47 433.51" fill="#d1d3d4"/><polygon points="545.34 473.62 554.95 509.12 155.94 509.12 146.32 473.62 545.34 473.62" fill="#bcbec0"/><polygon points="545.34 473.62 552.65 500.62 158.5 500.62 151.19 473.62 545.34 473.62" fill="#d1d3d4"/><path d="M444,518.29c.76-6.73,3.1-27.72.44-35.08-5.07-14-15.93-29.39-13.44-40.63s7.11-14.48,7.11-14.48c-3.19,7.57,8.45,24.06,11.92,31.27a208.7,208.7,0,0,1,10.55,26.29c2.64,8.67,1.8,29.27,1.77,35.75Z" fill="#0a0a0a"/><path d="M458,530c-.71,2.28-1.52,4.5-2.05,6.54A38.58,38.58,0,0,0,454.64,551c-3.83.77-10.05-1-13.35-3,.26-7,3.69-13.39,5.14-20.06Z" fill="#0a0a0a"/><path d="M441.15,517.81l-1.25,7.34a7.17,7.17,0,0,0,5.86,8.26l9,1.53a7.17,7.17,0,0,0,8.26-5.86l1.25-7.34a7.17,7.17,0,0,0-5.86-8.26l-9-1.53a7.16,7.16,0,0,0-8.26,5.86Zm2.82.48a4.3,4.3,0,0,1,4.95-3.52l9,1.54a4.28,4.28,0,0,1,3.52,4.92s0,0,0,.08l-1.24,7.34a4.3,4.3,0,0,1-4.95,3.53h-.05l-9-1.54a4.29,4.29,0,0,1-3.53-4.93v-.07Z" fill="#0a0a0a"/><path d="M452.23,512.43l-1.87,11a1.71,1.71,0,0,0,3.38.58l1.87-11Z" fill="#0a0a0a"/><g opacity="0.2"><path d="M441.15,517.81l-1.25,7.34a7.17,7.17,0,0,0,5.86,8.26l9,1.53a7.17,7.17,0,0,0,8.26-5.86l1.25-7.34a7.17,7.17,0,0,0-5.86-8.26l-9-1.53a7.16,7.16,0,0,0-8.26,5.86Zm2.82.48a4.3,4.3,0,0,1,4.95-3.52l9,1.54a4.28,4.28,0,0,1,3.52,4.92s0,0,0,.08l-1.24,7.34a4.3,4.3,0,0,1-4.95,3.53h-.05l-9-1.54a4.29,4.29,0,0,1-3.53-4.93v-.07Z"/><path d="M452.23,512.43l-1.87,11a1.71,1.71,0,0,0,3.38.58l1.87-11Z"/></g><path d="M267.68,370.67c-1.66-10.58-6.41-21.09-4.66-31.51,13.68-7.12,28.43-23,42.68-32.88,0,0,7.77,1.57,7.27,1l32.28,11.09c8.72,3.52,21.07,11.12,26.82,18.51-4.65,8-4,20.22-4,29.42.09,16.22-5,59.62,1.48,118.6-21.78,11.49-42.36,17.49-77.65,5-6.8-11.75,4.72-10.83.34-23.75-6-17.7-10.4-36.12-15.27-54.25C272.83,396.46,270.16,386.48,267.68,370.67Z" fill="#0a0a0a"/><path d="M267.68,370.67c-1.66-10.58-6.41-21.09-4.66-31.51,13.68-7.12,28.43-23,42.68-32.88,0,0,7.77,1.57,7.27,1l32.28,11.09c8.72,3.52,21.07,11.12,26.82,18.51-4.65,8-4,20.22-4,29.42.09,16.22-5,59.62,1.48,118.6-21.78,11.49-42.36,17.49-77.65,5-6.8-11.75,4.72-10.83.34-23.75-6-17.7-10.4-36.12-15.27-54.25C272.83,396.46,270.16,386.48,267.68,370.67Z" fill="#fff" opacity="0.5" style="isolation:isolate"/><path d="M304.82,310.29c16.84,31.19,19.61,22.46,25.06,23.22,5.05-3.73,14.35-1.4,15.35-13.74-1-1.63-.75-1.32-1.08-3.71a36,36,0,0,1,1.24-15.1l-30.88-28.39c-.93,3.82-1.69,7.83-2.3,11.94A107.1,107.1,0,0,1,304.82,310.29Z" fill="#ffb278"/><path d="M320.32,309.62c5,6.39,10.76,7.36,18.41,6.89,1.86-.12,3.66-.25,5.42-.45a36,36,0,0,1,1.24-15.1l-30.88-28.39c-.93,3.82-1.69,7.83-2.3,11.94.31,2.29.64,4.58,1,6.81C314.44,298.16,316.12,304.26,320.32,309.62Z" fill="#e5804e"/><path d="M328.63,333.39l3.12-.92a9.58,9.58,0,0,1,3.26,8.06c-3,3.05-4.2,5.09-8.41,3.71-3.05-4.33-4.45-3-4.31-7.8C323.71,333.53,328.26,333.09,328.63,333.39Z" fill="#ffffff"/><path d="M326.73,341.47l4-1.25c.93,7.72,27,127.64,27.5,132.61-3,3.82-5.07,10.95-8.54,13.76-4.77-5.2-5.85-6.47-9.36-12C340,458.76,330.06,358.33,326.73,341.47Z" fill="#ffffff"/><path d="M300.09,309.91a53.86,53.86,0,0,1,6-3.08c1.78,6.3,6.38,11.58,10.19,16.78,4.61,6.3,13.62,9.9,13.62,9.9-3.38,2-8.38,1.21-12.32,0-4.67-1.42-6.95,4.15-11.52,5C303.47,330.3,300.69,318.43,300.09,309.91Z" fill="#fff"/><path d="M327.68,334.19c11-6.13,15.21-13.51,16.71-17.4,1.82,1.67,4.1,3.19,6.07,4.86a31.89,31.89,0,0,1-6,16.54c-2.55-3-5.18-4.44-9.14-3.83A43.33,43.33,0,0,1,327.68,334.19Z" fill="#fff"/><path d="M398.94,488c-11.47-22.39-12.33-48.1-15.79-72.53-3.75-26.4-1.56-54.22-6-80.22-6.65-3.09-25.39-9.05-27.86-15.91l-2.87,12.92c0,28.2,1.49,60.06,0,88.28-1.65,31-14.68,62.49-9.59,96.83,20.82.72,97,3,114.2-6.21C449.23,507.3,400.89,491.78,398.94,488Z" fill="#0a0a0a"/><path d="M361.57,341.37c-1.47-2.42-5.05-5.4-7.49-6.95,1.72-1.64,4.93-6.95,7.37-7.22-1.33-7.68-6.46-12.92-11.25-17.05l-4.31,1c1.49,10.77-1,74.33-.95,95.22,0,9.39.86,18.87.95,28.24.08,8-.82,19.84,2.42,27.12,1.21-6.88,1.6-14.31,2.39-21.41,2.35-20.88,5.09-41.93,8.1-62.69,1.28-8.78,2.45-17.43,3.36-26.29C362.57,347.34,363.44,344.46,361.57,341.37Z" fill="#0a0a0a"/><path d="M361.57,341.37c-1.47-2.42-5.05-5.4-7.49-6.95,1.72-1.64,4.93-6.95,7.37-7.22-1.33-7.68-6.46-12.92-11.25-17.05l-4.31,1c1.49,10.77-1,74.33-.95,95.22,0,9.39.86,18.87.95,28.24.08,8-.82,19.84,2.42,27.12,1.21-6.88,1.6-14.31,2.39-21.41,2.35-20.88,5.09-41.93,8.1-62.69,1.28-8.78,2.45-17.43,3.36-26.29C362.57,347.34,363.44,344.46,361.57,341.37Z" opacity="0.2" style="isolation:isolate"/><path d="M456,473.47c-32.32-14.79-103.18-22.2-103.18-22.2-35.14,6.13-32.08,52.21-28.91,67,10.91.51,69.39-1,87.58-5.44-.46,9-4.44,98.31-3.84,116.69,1.37.42,18.76-1.17,20.13-1.54,10.8-24,22.77-104,25.2-118.13C454.26,502.28,464.07,477.18,456,473.47Z" fill="#ffffff"/><path d="M456,473.47c-32.32-14.79-103.18-22.2-103.18-22.2-35.14,6.13-32.08,52.21-28.91,67,10.91.51,69.39-1,87.58-5.44-.46,9-4.44,98.31-3.84,116.69,1.37.42,18.76-1.17,20.13-1.54,10.8-24,22.77-104,25.2-118.13C454.26,502.28,464.07,477.18,456,473.47Z" opacity="0.2" style="isolation:isolate"/><path d="M400.1,433c-25.88,7.77-59.73,21.23-74.78,25.13-9,2.34-35.72,15.06-35,25.83.51,8,10.36,20.82,16.51,25.12C321.15,519.13,333,517.4,350,517.4c14.36,0,56.8-39.1,57.51-44Z" fill="#ffffff"/><path d="M437.05,417.74c-36.84,6.36-111.73,40.39-111.73,40.39,3.91,14.36,36,32.49,47.71,42,14.83-7.17,45.37-30.63,53.59-35.88C432,471.41,477.07,565.08,488.56,578c1.23-.47,16.83-16.06,17.55-17.15-7.85-24.69-40.46-101.19-47.82-113.45C454.33,440.84,445.17,416.33,437.05,417.74Z" fill="#ffffff"/><path d="M358.52,278.59a18.58,18.58,0,0,0,1.28-2.31c.13-.26.26-.54.39-.83l.16-.33c.44-1,.91-2,1.38-3.16a93.47,93.47,0,0,0,3.86-10.66,17.3,17.3,0,0,0-1.66-10.3.31.31,0,0,0-.05-.1l-.12-.22a5,5,0,0,0-2.51-2.47l-4.87,1.67h0l-1.25.43a7.87,7.87,0,0,0,.44,2.85c.07.3.16.61.24.93.63,2.34,1.47,5.06,1.72,6.09a37.35,37.35,0,0,1,.68,4.59c.19,1.9.34,4.05.42,6.12,0,.55,0,1.1.05,1.63v4.37C358.63,277.56,358.58,278.13,358.52,278.59Z" fill="#ffffff"/><ellipse cx="337.47" cy="276.04" rx="38.37" ry="23.78" transform="translate(43.13 597.68) rotate(-86.82)" fill="#f9b499"/><path d="M321.07,265.51l-.53,4.8c.44.9,11.92,3.64,14.43,4.4,1.1-1.64,3.65-5.65,1.87-6.76C335.4,266.07,324.62,264.5,321.07,265.51Z" fill="#ffffff"/><path d="M359.29,265.29l.67,4.78c-.32.9-9.7,3.89-11.74,4.69-1-1.61-2.27-4.11-1.88-6.7C348.42,264.71,357.85,263.83,359.29,265.29Z" fill="#ffffff"/><path d="M358.34,246.74c-1-.1-2.11-.19-3.17-.27-8.67-.63-17.4,0-26.05.71-8.49.73-24.86,24.45-22.71,29.22l5,6.09h0l.17.16,1.71,1.7c.29-1,.65-1.92,1-2.87s.79-2,1.14-3.14c1-3.37,1.62-7.88,0-16.24a3.34,3.34,0,0,1,.17-2c1.2-2.87,6.62-3.67,10.23-4.29,3.8-.67,4.54-2.38,5.31-5.6a.29.29,0,0,1,.05-.16c.05-.06,0-.21.07-.32a1.91,1.91,0,0,0,.11-.47h0c.38.09.84.21,1.36.36,4.84,1.31,15.61,4.23,23,4.47a21.36,21.36,0,0,0,2.53,0Z" fill="#ffffff"/><path d="M355.82,246.53l-.65-.06h0a31.47,31.47,0,0,1-3.87.48,73,73,0,0,1-13.22-.44c-3,.18-6,.41-8.93.67-8.49.73-14.37,2.63-22.8,4-.27,0-2,0-2.17.07s.07.34-.41.42c-.1,0-1.27.74-1.38.76-.59,4.76,1.9,19.22,4.05,24l5,6.09h0l4.92,6c1.49-5.11,2-13.42-.6-27.31a3.92,3.92,0,0,1-.06-1.08c.35-3.63,6.5-4.51,10.46-5.2,3.42-.6,4.37-2,5.08-4.69a.29.29,0,0,1,.05-.16c.06-.25.13-.51.19-.78s.15-.6.22-.92c3.75,1,15.94,4.51,24.16,4.83Z" fill="#ffffff"/><ellipse cx="308.44" cy="280.24" rx="5.7" ry="9.22" transform="translate(-74.4 115.62) rotate(-18.99)" fill="#f9b499"/><path d="M289.92,256.76c-.24,7.71,19.95,14.59,45.1,15.37s45.72-4.83,46-12.54-20-14.59-45.1-15.37S290.16,249.05,289.92,256.76Z" fill="#0a0a0a"/><path d="M335,272.13c25.14.78,45.72-4.84,46-12.54a5.09,5.09,0,0,0-.16-1.35c-.64,7.59-21.06,13.09-45.95,12.32-23.68-.73-43-6.88-44.94-14v.23C289.68,264.47,309.87,271.35,335,272.13Z" opacity="0.2" style="isolation:isolate"/><path d="M309.05,255.75c15.69,12.08,49.58,7.4,54.92,2.57,1-.93-.42-7-2.22-12.86a78.15,78.15,0,0,0-3.86-10.36c-4-7.39-9.28-15.37-18.18-9.62-3.74,2.42-4.84,4.3-9.26,2-3.32-1.72-3.92-5.15-8.79-4a8.63,8.63,0,0,0-2.54,1.07c-5.27,3.27-8,11.87-9.62,16.67C307.69,246.54,304.53,252.27,309.05,255.75Z" fill="#0a0a0a"/><path d="M309.05,255.75c15.69,12.08,49.58,7.4,54.92,2.57,1-.93-.42-7-2.22-12.86-9.68,6.67-25.15,10.17-34,1.48-4.47-4.39-7.24-10.87-8.16-16.92a49.29,49.29,0,0,1-.46-5.43c-5.27,3.27-8,11.87-9.62,16.67C307.69,246.54,304.53,252.27,309.05,255.75Z" opacity="0.2" style="isolation:isolate"/><path d="M309.05,255.75c4.78,3.68,11.24,5.81,18.08,6.84,15.6,2.38,33.12-.91,36.84-4.27.64-.59.31-3.22-.48-6.55-4.69,3.34-22.48,6.39-37.86,3.66-6.27-1.11-12.15-3.19-16.58-6.6a5.9,5.9,0,0,1-1.6-1.81C306.41,250.38,306.16,253.53,309.05,255.75Z" fill="#ffffff"/><ellipse cx="359.4" cy="278.38" rx="8.83" ry="5.6" transform="translate(49.93 611.37) rotate(-84.86)" fill="#f9b499"/><path d="M319.83,376c-5-28.71-16.05-61.08-19.74-66.1,0,0-44.37,16.81-42.7,27.34,1.11,7,4.25,23.28,5.29,30.27,2.49,16.66,7.93,35.09,11.22,51.55,3.41,17.1,4.41,31.67,7,49,4.29,29.12-8.46,47.39-7,76.61,4.3,7.9,18.49,12.07,28.7,13.64,18.67,2.87,33,6.46,46.66.72C341,516.78,325.56,408.76,319.83,376Z" fill="#0a0a0a"/><path d="M266.82,325c-3.74,5.19-11.37,8.32-13.94,16s-1.58,18.17-2,26.44c-1,17.14-5.65,54-4.12,71,.84,9.47,4.34,15.41,16.5,18.57,13.93,3.61,18.43-9.3,21.15-15,5.16-10.76,1.75-32,6.18-42.8Z" fill="#0a0a0a"/><path d="M331.28,433.43c-3.43-29.92-11.74-65.06-16.49-94.57-2.56-15.93-5.73-41.8-5.73-41.8-11.19,2.31-26.66,16.83-27.16,28.6,5.14.09,10.28,1.4,15.41.77-1.72,4.12-4.77,15.11-4.77,15.11S322,433.46,327.71,456.39c4,16.19,7.21,31.95,11.9,47.47C335.35,480.94,334,457,331.28,433.43Z" fill="#0a0a0a"/><path d="M331.28,433.43c-3.43-29.92-11.74-65.06-16.49-94.57-2.56-15.93-5.73-41.8-5.73-41.8-11.19,2.31-26.66,16.83-27.16,28.6,5.14.09,10.28,1.4,15.41.77-1.72,4.12-4.77,15.11-4.77,15.11S322,433.46,327.71,456.39c4,16.19,7.21,31.95,11.9,47.47C335.35,480.94,334,457,331.28,433.43Z" opacity="0.2" style="isolation:isolate"/><path d="M274.41,466c-.78-10.94,4.33-16.84,4.33-16.84-.86,7.8,8,19.87,13.16,25.53a152.85,152.85,0,0,1,14.83,19.16c5.73,8.66,12.72,33.57,12.72,33.57S315,545.11,312,548.22c-.51.54-9.37-18.17-9.37-18.17s-3.89-24.5-9.4-31.95C284.82,486.68,275.19,477,274.41,466Z" fill="#0a0a0a"/><path d="M274.41,466c-.78-10.94,4.33-16.84,4.33-16.84-.86,7.8,8,19.87,13.16,25.53a152.85,152.85,0,0,1,14.83,19.16c5.73,8.66,12.72,33.57,12.72,33.57S315,545.11,312,548.22c-.51.54-9.37-18.17-9.37-18.17s-3.89-24.5-9.4-31.95C284.82,486.68,275.19,477,274.41,466Z" opacity="0.2" style="isolation:isolate"/><path d="M286.07,498.43l4.05-1.67c-1.79-4.32-1.34-11.49-.42-16.31.52-2.69,2.69-8.1,3.93-8.69a.72.72,0,0,1-.41,0l1.13-4.23a3.79,3.79,0,0,0-3.07.52c-3.78,2.37-5.86,11.47-5.88,11.56C284.31,485.3,283.92,493.22,286.07,498.43Z" fill="#0a0a0a"/><path d="M286.07,498.43l4.05-1.67c-1.79-4.32-1.34-11.49-.42-16.31.52-2.69,2.69-8.1,3.93-8.69a.72.72,0,0,1-.41,0l1.13-4.23a3.79,3.79,0,0,0-3.07.52c-3.78,2.37-5.86,11.47-5.88,11.56C284.31,485.3,283.92,493.22,286.07,498.43Z" fill="#fff" opacity="0.2" style="isolation:isolate"/><path d="M268.18,384.93c-5.06,2.6-13.54,8.38-12.68,14.34.79,5.55-.11,13.7,9.05,25,19.41,23.94,22.37-14.77,20-26.11Z" fill="#0a0a0a"/><path d="M268.18,384.93c-5.06,2.6-13.54,8.38-12.68,14.34.79,5.55-.11,13.7,9.05,25,19.41,23.94,22.37-14.77,20-26.11Z" opacity="0.2" style="isolation:isolate"/><path d="M272.67,367.88c-2.23,7.68-3.39,14.16-6.5,22-.81,2.06-4.58,5.8-4.19,7.69s3,10,9.34,12.14c11.9,4,12-4.42,15.4-6.73Z" fill="#ffffff"/><path d="M444.49,398.17c2.53-12.42,4.4-24.19,3.13-28.17a24.59,24.59,0,0,0-4.91-8.49l-3.83,14.35c-5.25,5.19-9.47,25.13-7.49,30.95C440.71,405.84,443.41,403.44,444.49,398.17Z" fill="#ffffff"/><polygon points="432.18 387.62 460.17 433.61 384.09 468.47 365.91 475.17 363.99 475.88 276.29 445.59 258.14 439.32 280.69 367.03 259.81 323.04 249.92 272.88 292.37 276.1 292.73 276.21 378.06 301.47 378.62 301.64 439.87 289.47 468.77 296.87 442.73 344.7 432.18 387.62" fill="#e6e7e8"/><path d="M364.15,308,307.3,292.16q.24,2.34.33,4.68l56.75,14.8C364.3,310.42,364.23,309.2,364.15,308Z" fill="#231f20" opacity="0.05" style="isolation:isolate"/><path d="M364.15,316.61,307.3,300.8q.24,2.32.33,4.68l56.75,14.79C364.3,319.05,364.23,317.83,364.15,316.61Z" fill="#231f20" opacity="0.05" style="isolation:isolate"/><path d="M364.15,325.24,307.3,309.43q.24,2.32.33,4.68l56.75,14.79C364.3,327.68,364.23,326.46,364.15,325.24Z" fill="#231f20" opacity="0.05" style="isolation:isolate"/><path d="M364.15,333.87,307.3,318.06q.24,2.32.33,4.68l56.75,14.79C364.3,336.31,364.23,335.09,364.15,333.87Z" fill="#231f20" opacity="0.05" style="isolation:isolate"/><path d="M364.15,342.5,307.3,326.69q.24,2.32.33,4.68l56.75,14.8C364.3,345,364.23,343.72,364.15,342.5Z" fill="#231f20" opacity="0.05" style="isolation:isolate"/><path d="M364.15,351.14,307.3,335.32q.24,2.34.33,4.68l56.75,14.8C364.3,353.58,364.23,352.36,364.15,351.14Z" fill="#231f20" opacity="0.05" style="isolation:isolate"/><path d="M364.15,359.77,307.3,344q.24,2.34.33,4.68l56.75,14.8C364.3,362.21,364.23,361,364.15,359.77Z" fill="#231f20" opacity="0.05" style="isolation:isolate"/><path d="M360.29,410.62,303,392.74c.16,1.56-8,48.65-7.91,50.22l55.64,23.76C351.44,470.15,360.37,411.84,360.29,410.62Z" fill="#231f20" opacity="0.05" style="isolation:isolate"/><polygon points="385.35 311.98 382.96 361.92 430.09 354.52 444.41 326.78 453.95 304.58 435.46 302.12 385.35 311.98" fill="#231f20" opacity="0.05" style="isolation:isolate"/><path d="M422.81,387.5a193.72,193.72,0,0,1,6.91-26.16L383,370.55l-2.39,49.94,44.15-7.4C425,404.08,421.13,396.33,422.81,387.5Z" fill="#231f20" opacity="0.05" style="isolation:isolate"/><path d="M280.7,373.48a10.66,10.66,0,0,1,.25-3.69c-.31,1,.54-.68-.24.28.79-1,0-.18.63-.58,2.55-1.62,5.58-2.53,8.23-4,5.67-3.08,7.95-14.66-4.88-8.74-3.41,1.58-7.05,2.88-10,5.25-3.38,2.7-4.15,7.06-4,11.16.25,6.42,10.26,6.73,10,.29Z" fill="#ffffff"/><path d="M281.72,379.62a11.72,11.72,0,0,1,1-3.58c-.36.66.67-.59-.14,0,.1-.07,1.43-.66.53-.34,2.82-1,6-1.12,8.81-2.08,10.62-3.56,9.72-11.78-2.38-9.71a49.22,49.22,0,0,0-11,2.93c-3.92,1.67-5.69,6.05-6.4,9.94-.48,2.68.55,5.38,3.38,6.22,2.39.71,5.73-.69,6.22-3.37Z" fill="#ffffff"/><path d="M282,385a15,15,0,0,1,1.87-2.79c.72-.76.15-.14-.31,0,1.16-.41-.94,0,.32,0,.56.07.59.06.1,0,.53.09,1.06.2,1.58.3a40.72,40.72,0,0,0,4.53.61c6.45.47,15.58-9.45.28-10-2.88-.1-5.67-1.1-8.79-.67-3.8.51-6.39,4.38-8.13,7.39-3.22,5.59,5.33,10.79,8.55,5.19Z" fill="#ffffff"/><path d="M287,379.44c-2.06.14-4.14-.53-6.17.15-3.64,1.22-5.51,4.5-7.08,7.78-1.17,2.46-3.61,9.31-1.11,10.82,2.16,1.31,11.5-8.83,11.55-8.83a13.29,13.29,0,0,0,2.52.09c2.72-.18,7.81-1.22,7.89-4.13C294.71,382.79,289.76,379.27,287,379.44Z" fill="#ffffff"/><path d="M438.9,372.83a14.49,14.49,0,0,0-.17-3.66c.22,1-.38-.74.16.3-.54-1.05,0-.17-.43-.64-1.78-1.92-3.91-3.19-5.77-4.94-4-3.73-5.54-15.42,3.43-8,2.39,2,4.93,3.71,7,6.41,2.37,3.08,2.9,7.47,2.78,11.49-.18,6.29-7.19,5.36-7-1Z" fill="#ffffff"/><path d="M438.18,378.75a16.6,16.6,0,0,0-.69-3.64c.26.7-.46-.67.1,0-.06-.08-1-.83-.37-.4-2-1.35-4.18-1.85-6.16-3.14-7.43-4.83-6.79-12.81,1.67-9.28a32.36,32.36,0,0,1,7.7,4.26c2.75,2.12,4,6.66,4.47,10.58.34,2.7-.39,5.23-2.37,5.7-1.68.41-4-1.38-4.35-4.09Z" fill="#ffffff"/><path d="M438,384a18.13,18.13,0,0,0-1.3-3c-.5-.84-.11-.16.21.05-.81-.54.66.07-.22-.05h-.07l-1.11.09a18.64,18.64,0,0,1-3.17,0c-4.51-.33-10.89-11.24-.19-9.88,2,.25,4-.38,6.16.42,2.66,1,4.47,5.11,5.68,8.29,2.25,5.91-3.74,10-6,4.05Z" fill="#ffffff"/><path d="M434.46,377.92c1.44.39,2.89,0,4.31.91,2.55,1.66,3.85,5.11,5,8.55.82,2.56,2.52,9.61.77,10.79-1.52,1-8-10.13-8.08-10.13a7,7,0,0,1-1.76-.23c-1.91-.51-5.47-2.17-5.52-5C429.08,380.26,432.55,377.41,434.46,377.92Z" fill="#ffffff"/></g></svg>